# xmcd
#
# Track frame offsets:
#	150
#	13256
#	24802
#	37789
#	48488
#	63753
#	82103
#	97172
#	112140
#	123351
#	133908
#	145114
#	156724
#	170080
#	181032
#	192675
#	207494
#	223456
#	239131
#	252481
#	262992
#	277114
#	287831
#	303626
#	318533
#
# Disc length: 4441 seconds
#
# Revision: 1
# Processed by: cddbd v1.5.2PL0 Copyright (c) Steve Scherf et al.
# Submitted via: audiograbber 1.83.01
#
DISCID=97115719
DTITLE=Kenny Rogers - Icons CD1
DYEAR=1900
DGENRE=Country
TTITLE0=Ruby Don't Take Your Love To Town
TTITLE1=Me And Bobby McGee
TTITLE2=Run Thru Your Mind
TTITLE3=Homemade Lies
TTITLE4=For The Good Times
TTITLE5=The King Of Oak Street
TTITLE6=Conditions
TTITLE7=Tell It All Brother
TTITLE8=Hurry Up Love
TTITLE9=Ticket To Nowhere
TTITLE10=If Wishes Were Horses
TTITLE11=Poem For My Lady
TTITLE12=But You Know That I Love You
TTITLE13=Always Leavin',  Always Gone
TTITLE14=What Am I Gonna Do
TTITLE15=Church Without A Name
TTITLE16=I Found A Reason
TTITLE17=Tulsa Turnaround
TTITLE18=Sleep Comes Easy
TTITLE19=We All Got To Help Each Other
TTITLE20=Loser
TTITLE21=She Even Woke Me Up To Say Goodbye
TTITLE22=The Way It Used To Be
TTITLE23=Heed The Call
TTITLE24=After All, I Live My Life
EXTD=(C) 2006 Go Entertain Ltd\nwww.goentertain.tv
EXTT0=
EXTT1=
EXTT2=
EXTT3=
EXTT4=
EXTT5=
EXTT6=
EXTT7=
EXTT8=
EXTT9=
EXTT10=
EXTT11=
EXTT12=
EXTT13=
EXTT14=
EXTT15=
EXTT16=
EXTT17=
EXTT18=
EXTT19=
EXTT20=
EXTT21=
EXTT22=
EXTT23=
EXTT24=
PLAYORDER=
